<?xml version="1.0" encoding="utf-8"?>
<!-- Generator: Adobe Illustrator 26.0.1, SVG Export Plug-In . SVG Version: 6.00 Build 0)  -->
<svg version="1.1" id="Livello_1" xmlns="http://www.w3.org/2000/svg" xmlns:xlink="http://www.w3.org/1999/xlink" x="0px" y="0px"
	 viewBox="0 0 425.2 425.2" style="enable-background:new 0 0 425.2 425.2;" xml:space="preserve">
<style type="text/css">
	.st0{fill:#FFFFFF;}
	.st1{fill:#CE2D1A;}
	.st2{clip-path:url(#SVGID_00000063612094796221983780000014312779809199868844_);}
</style>
<path class="st0" d="M0,425.2h425.2V0H0V425.2z"/>
<path class="st1" d="M5,4.8h415.6v415.7H5V4.8z M0,425.2h425.2V0H0V425.2z"/>
<g>
	<g>
		<g>
			<defs>
				<rect id="SVGID_1_" y="0" width="425.2" height="425.2"/>
			</defs>
			<clipPath id="SVGID_00000143586403783872866270000015007859831197080475_">
				<use xlink:href="#SVGID_1_"  style="overflow:visible;"/>
			</clipPath>
			<g style="clip-path:url(#SVGID_00000143586403783872866270000015007859831197080475_);">
				<path class="st1" d="M265.6,264.2h-1.3v7h1.5c1.6,0,2.4-0.9,2.4-2.8v-1.3C268.2,265.1,267.4,264.2,265.6,264.2 M265.5,254.8
					h-1.2v6.2h1.1c1.7,0,2.3-0.8,2.3-2.8v-0.7C267.7,255.6,267,254.8,265.5,254.8 M253.1,256.5l-1.4,9.6h2.9l-1.4-9.6H253.1z
					 M220.3,256.5l-1.4,9.6h2.9L220.3,256.5L220.3,256.5z M156.4,260c1.5-1.6,1.9-2.4,1.9-3.5v-0.2c0-1.2-0.6-1.9-1.6-1.9
					s-1.6,0.6-1.6,1.9v0.2C155.3,257.8,155.7,259,156.4,260L156.4,260z M155.7,265.2c-0.6,0.9-0.9,2-0.9,3v0.5c0,1.9,1,2.7,2.4,2.7
					c0.8,0,1.5-0.3,2-0.8L155.7,265.2L155.7,265.2z M99.2,256.5l-1.4,9.6h2.9L99.2,256.5L99.2,256.5z M74.6,254.8h-1.4v6.8h1.4
					c1.7,0,2.4-0.9,2.4-2.8v-1.2C77,255.7,76.2,254.8,74.6,254.8 M313.8,168.7h21.9L325.1,96h-0.7L313.8,168.7z M371.9,274.3h-9.7
					v-22.7h9.7v3.2h-6.2v6.4h5v3.2h-5v6.8h6.2V274.3z M371.4,231.5h-26.6l-5.7-39.2h-28.8l-5.7,39.2h-26.1L308.3,59h33.3
					L371.4,231.5z M276.9,271.1h5.8v3.2h-9.2v-22.7h3.4L276.9,271.1L276.9,271.1z M271.9,195.3c0,24.6-14.5,38.7-40.4,38.7
					S191,220,191,195.3v-11.6l25.1-2.5v12.3c0,10.8,4.9,16.3,14.8,16.3s14.8-5.4,14.8-16.3V188c0-10.8-5.2-19.5-22.7-34.2
					c-23.9-20.2-32-34.5-32-54.7v-3.7c0-24.7,14-38.7,38.9-38.7s38.9,14,38.9,38.7v4.4l-25.1,2.5v-6.4c0-9.9-4.7-15-13.3-15
					s-13.3,5.2-13.3,15V98c0,10.1,4.4,18.7,21.9,33.5c23.9,20.2,32.8,34.5,32.8,55.2L271.9,195.3z M189.3,269.1v-17.5h3.4v17.6
					c0,3.6-2,5.4-5.4,5.4s-5.3-1.9-5.3-5.4v-17.6h3.3v17.5c0,1.6,0.7,2.3,1.9,2.3S189.3,270.8,189.3,269.1 M181.1,269.6
					c0,3.2-1.9,5.1-5.3,5.1s-5.3-1.9-5.3-5.1v-1.5l3.3-0.3v1.6c0,1.4,0.6,2.1,1.9,2.1s1.9-0.7,1.9-2.1v-0.7c0-1.4-0.7-2.6-3-4.5
					c-3.1-2.7-4.2-4.5-4.2-7.2v-0.5c0-3.2,1.9-5.1,5.1-5.1s5.1,1.9,5.1,5.1v0.6l-3.3,0.3v-0.8c0-1.3-0.6-2-1.8-2s-1.8,0.7-1.8,2v0.3
					c0,1.3,0.6,2.5,2.9,4.4c3.1,2.7,4.3,4.5,4.3,7.3L181.1,269.6z M171.3,231.6h-26.1V59.1h26.1V231.6z M144.7,274.4H135v-22.7h9.7
					v3.2h-6.2v6.4h5v3.2h-5v6.8h6.2V274.4z M133.5,251.7l-3.8,22.7h-4.4l-3.8-22.7h3.5l2.6,17.3h0.1l2.5-17.3H133.5z M128.4,231.6
					H58.7V59.1h26.1V207h43.6V231.6z M62.4,251.3c3.4,0,5.4,2,5.4,5.4v2l-3.3,0.2V257c0-1.8-0.7-2.6-2-2.6s-2,0.8-2,2.3v12.4
					c0,1.5,0.7,2.3,2,2.3s2-0.8,2-2.6v-2.5l3.3,0.2v2.7c0,3.4-2,5.5-5.4,5.5s-5.3-2-5.3-5.5v-12.5C57.1,253.3,59,251.3,62.4,251.3
					 M69.8,251.7h5c3.7,0,5.7,2,5.7,5.8v1.6c0,2.4-0.8,4.1-2.4,5l3.2,10.4h-3.7l-2.7-9.6h-1.6v9.6h-3.4L69.8,251.7L69.8,251.7z
					 M82.8,251.7h9.7v3.2h-6.2v6.4h5v3.2h-5v6.8h6.2v3.2h-9.7V251.7z M93.2,274.4l3.9-22.7h4.4l3.9,22.7h-3.5l-0.8-5.2h-3.8
					l-0.7,5.2H93.2z M108,254.9h-3.7v-3.2h10.8v3.2h-3.7v19.5H108V254.9z M116.4,251.6h3.4v22.7h-3.4V251.6z M151.4,268.3
					c0-2.2,0.9-4.3,2.5-5.9c-1.6-2.6-2-4.1-2-5.9v-0.2c0-3.3,1.7-5,4.8-5s4.8,1.9,4.8,4.9v0.2c0,2.1-0.8,3.5-3.5,6.2l2.3,3.6h0.1
					v-3.4l3,0.2v3.7c0,1.1-0.1,2.3-0.5,3.4l2.8,4.2h-4.1l-0.6-1c-1.1,1-2.5,1.4-3.9,1.4c-3.4,0-5.6-1.9-5.6-5.5L151.4,268.3z
					 M194.3,256.4c0-3.2,1.9-5.1,5.1-5.1s5.1,1.9,5.1,5.1v0.6l-3.3,0.3v-0.8c0-1.3-0.6-2-1.8-2s-1.8,0.7-1.8,2v0.3
					c0,1.3,0.6,2.5,2.9,4.4c3.1,2.7,4.3,4.5,4.3,7.3v1.1c0,3.2-1.9,5.1-5.3,5.1s-5.3-1.9-5.3-5.1v-1.5l3.3-0.3v1.6
					c0,1.4,0.6,2.1,1.9,2.1s2-0.7,2-2.1v-0.7c0-1.4-0.7-2.6-3-4.5c-3.1-2.7-4.2-4.5-4.2-7.2L194.3,256.4z M208.3,254.9h-3.7v-3.2
					h10.8v3.2h-3.7v19.5h-3.4L208.3,254.9L208.3,254.9z M214.3,274.4l3.9-22.7h4.4l3.9,22.7H223l-0.8-5.2h-3.8l-0.8,5.2H214.3z
					 M228,251.6h3.4v22.7H228V251.6z M234.3,251.6h3.8l4.1,13.5h0.1v-13.5h3.2v22.7h-3.4l-4.5-15.1h-0.1v15.1h-3.2L234.3,251.6
					L234.3,251.6z M247,274.4l4-22.7h4.4l3.9,22.7h-3.5l-0.8-5.2h-3.8l-0.8,5.2H247z M260.8,251.6h4.8c3.6,0,5.5,2,5.5,5.8v0.4
					c0,2.5-0.8,4-2.6,4.6v0.1c2.1,0.6,3,2.3,3,5.3v0.8c0,3.7-2,5.7-5.7,5.7h-5.1v-22.7L260.8,251.6L260.8,251.6z M283.9,251.6h9.7
					v3.2h-6.2v6.4h5v3.2h-5v6.8h6.2v3.2h-9.7V251.6z M298.9,251.6h10.8v3.2H306v19.5h-3.4v-19.5h-3.7V251.6z M310.9,251.6h9.7v3.2
					h-6.2v6.4h5v3.2h-5v6.8h6.2v3.2H311L310.9,251.6z M321.1,274.4l4.3-11.8l-4.1-10.9h3.7l2.5,7.2h0.1l2.4-7.2h3.5v0.3l0.1-0.3
					h10.7v3.2h-3.7v19.5h-3.4v-19.5h-3.7v-3l-4,10.8l4.4,11.6h-3.6l-2.8-8h-0.1l-2.7,8L321.1,274.4z M345.5,251.6h3.5v22.7h-3.4
					L345.5,251.6z M351.7,251.6h3.4v19.5h5.8v3.2h-9.2L351.7,251.6z M401.2,23.2H22.6v378.6h378.6V23.2z"/>
			</g>
		</g>
	</g>
</g>
<g>
	<g>
		<g>
			<defs>
				<rect id="SVGID_00000065035663531543167950000007575568141893792664_" x="-597" y="0" width="425.2" height="425.2"/>
			</defs>
			<clipPath id="SVGID_00000114764347947312837600000009839877114002202803_">
				<use xlink:href="#SVGID_00000065035663531543167950000007575568141893792664_"  style="overflow:visible;"/>
			</clipPath>
		</g>
	</g>
</g>
</svg>
