<svg xmlns="http://www.w3.org/2000/svg" width="62.251" height="62.555"><g data-name="Group 19"><path d="m12.708 56.83-1.865-1.537c-.308-.253-.522-.509-.644-.767-.23-.492-.146-.979.252-1.462.207-.252.428-.416.662-.493.234-.077.483-.088.745-.035a1.083 1.083 0 0 1-.144-.562c.009-.176.109-.39.302-.642l.446-.58c.126-.164.21-.294.255-.39.077-.162.089-.296.033-.405l.079-.095.681.563a.727.727 0 0 1-.07.176 3.814 3.814 0 0 1-.247.357l-.545.729c-.215.285-.269.549-.165.79.06.138.201.298.422.48l1.229 1.013 1.488-1.804.556.458-3.47 4.206Zm-.215-3.415c-.254-.21-.499-.32-.734-.336-.237-.015-.47.116-.7.396-.246.3-.312.59-.195.868.064.148.187.299.371.45l1.32 1.09 1.186-1.438-1.248-1.03Z" fill="#161615" fill-rule="evenodd" data-name="Path 1"/><path d="m8.114 52.754-2.447-2.986.518-.422 2 2.44 1.281-1.048-1.85-2.257.488-.4 1.85 2.256 1.43-1.17-2.035-2.484.502-.411 2.48 3.026-4.217 3.456Z" fill="#161615" fill-rule="evenodd" data-name="Path 2"/><path d="m4.66 48.223-1.785-3.229.584-.324 1.437 2.6 1.449-.801-1.263-2.286.569-.314 1.263 2.285 2.17-1.201.348.632-4.772 2.638Z" fill="#161615" fill-rule="evenodd" data-name="Path 3"/><path d="M2.255 43.537 1.023 39.88l.634-.213 1.007 2.992 1.57-.528-.933-2.766.599-.2.931 2.763 1.752-.59-1.025-3.043.615-.207 1.25 3.708-5.168 1.741Z" fill="#161615" fill-rule="evenodd" data-name="Path 4"/><path d="m.592 38.02-.318-2.397c-.052-.394-.036-.728.05-1 .167-.516.56-.817 1.18-.899.324-.044.599-.013.822.09.223.104.413.265.569.482.058-.217.15-.388.277-.51.125-.123.345-.211.658-.265l.72-.122c.206-.034.358-.07.454-.11.167-.066.267-.157.301-.274L5.427 33l.116.876a.778.778 0 0 1-.173.08 3.469 3.469 0 0 1-.422.093l-.896.163c-.352.064-.57.22-.661.468-.049.14-.054.354-.016.637l.209 1.58 2.319-.308.095.715-5.406.717Zm2.169-2.648c-.044-.326-.147-.574-.31-.746-.162-.172-.422-.233-.78-.186-.386.05-.63.219-.736.502-.054.152-.064.347-.033.584l.224 1.697 1.848-.246-.213-1.605Z" fill="#161615" fill-rule="evenodd" data-name="Path 5"/><path d="m0 31.94.221-3.852.667.038-.18 3.152 1.652.095.167-2.914.63.036-.166 2.914 1.844.105.185-3.207.647.038-.223 3.908L0 31.94Z" fill="#161615" fill-rule="evenodd" data-name="Path 6"/><path d="m.483 26.31.205-.825 4.916-1.506-4.274-1.067.167-.666 5.29 1.319-.196.785-4.92 1.547 4.27 1.065-.167.667-5.291-1.32Z" fill="#161615" fill-rule="evenodd" data-name="Path 7"/><path d="M4.104 17.157c.485-.177.947-.187 1.383-.028l-.298.636c-.352-.078-.67-.054-.955.07-.286.125-.516.377-.697.76-.217.465-.223.922-.014 1.369.208.446.665.834 1.371 1.166.58.27 1.11.361 1.59.27.482-.089.842-.391 1.082-.904.222-.471.2-.92-.063-1.345-.138-.225-.354-.445-.65-.662l.3-.636c.493.3.842.69 1.046 1.17.246.576.22 1.185-.081 1.828-.26.553-.65.936-1.174 1.15-.691.278-1.517.193-2.478-.256-.728-.34-1.239-.806-1.53-1.398-.32-.637-.314-1.31.017-2.018.282-.602.666-.992 1.151-1.172Z" fill="#161615" fill-rule="evenodd" data-name="Path 8"/><path d="m4.968 14.872 2.254-3.133.542.39-1.844 2.563 1.345.967 1.704-2.37.512.37-1.704 2.368 1.5 1.08 1.875-2.608.527.381-2.285 3.177-4.426-3.185Z" fill="#161615" fill-rule="evenodd" data-name="Path 9"/><path d="M11.273 12.747c.227.21.452.343.673.397.417.099.833-.053 1.251-.459.187-.179.33-.373.429-.578.19-.399.147-.74-.13-1.025-.205-.212-.415-.304-.63-.272-.213.035-.487.15-.823.349l-.618.365c-.403.24-.718.378-.945.415-.394.064-.748-.066-1.063-.392-.342-.352-.506-.752-.494-1.202.014-.45.231-.88.655-1.289.39-.379.816-.6 1.281-.664.464-.067.907.118 1.33.554l-.487.47c-.228-.185-.438-.295-.627-.328-.35-.056-.705.09-1.068.44-.292.283-.438.553-.44.808 0 .256.084.47.253.645.186.192.398.26.635.2.154-.038.448-.184.88-.437l.64-.377c.31-.183.582-.286.819-.314.413-.045.788.107 1.125.455.421.433.57.89.452 1.367-.12.477-.377.908-.775 1.293-.464.449-.946.676-1.45.68-.502.007-.954-.203-1.36-.63l.487-.471Z" fill="#161615" fill-rule="evenodd" data-name="Path 10"/><path d="m15.712 8.028 1.531-.977.37.577-1.53.98-.371-.58Z" fill="#161615" fill-rule="evenodd" data-name="Path 11"/><path d="m19.118 2.662 2.27-.836c.373-.137.701-.194.986-.17.54.05.92.368 1.136.956.112.306.143.58.092.82-.052.24-.167.461-.345.662.225.008.41.06.557.157.148.097.282.292.403.584l.277.678c.078.192.147.332.207.417.1.148.211.227.333.233l.042.116-.829.304a.667.667 0 0 1-.117-.15 3.65 3.65 0 0 1-.182-.39l-.356-.84c-.139-.328-.34-.51-.601-.541-.148-.018-.357.024-.625.123l-1.495.55.807 2.195-.675.248-1.885-5.116Zm3.059 1.535c.309-.113.529-.268.66-.464.132-.196.136-.464.01-.803-.133-.364-.35-.567-.65-.606-.16-.02-.353.01-.578.093l-1.605.592.644 1.748 1.519-.56Z" fill="#161615" fill-rule="evenodd" data-name="Path 12"/><path d="m24.91.752 3.805-.64.11.659-3.113.522.274 1.635 2.879-.485.103.622-2.877.483.306 1.823 3.166-.53.109.64-3.86.648-.903-5.377Z" fill="#161615" fill-rule="evenodd" data-name="Path 13"/><path d="m30.529 0 3.688.027-.003.668-2.97-.02-.011 1.654 2.61.019-.004.65-2.611-.02-.017 2.48-.72-.005L30.53 0Z" fill="#161615" fill-rule="evenodd" data-name="Path 14"/><path d="m35.75.188 3.796.695-.12.658-3.105-.569-.298 1.629 2.87.525-.115.62-2.869-.525-.333 1.818 3.159.579-.117.64-3.85-.706.982-5.364Z" fill="#161615" fill-rule="evenodd" data-name="Path 15"/><path d="m41.375 1.404 2.25.884c.37.145.654.323.849.53.37.396.443.885.214 1.468-.12.304-.278.528-.477.672a1.433 1.433 0 0 1-.697.266c.16.157.265.319.311.489.046.17.017.405-.088.703l-.244.69c-.07.196-.11.347-.123.45-.023.178.008.31.094.396l-.045.114-.823-.323a.682.682 0 0 1 .013-.19c.014-.075.055-.212.125-.414l.291-.862c.116-.339.086-.606-.088-.805-.1-.111-.283-.219-.549-.324l-1.483-.583-.856 2.176-.67-.264 1.996-5.073Zm1.263 3.18c.306.12.573.151.801.092.23-.059.41-.257.542-.593.143-.362.115-.657-.082-.885-.107-.123-.272-.227-.495-.314l-1.591-.627-.682 1.734 1.507.593Z" fill="#161615" fill-rule="evenodd" data-name="Path 16"/><path d="m47.03 3.872 3.245 2.089-.362.562-2.653-1.71-.897 1.392 2.453 1.581-.342.53-2.453-1.58-1.002 1.553 2.701 1.74-.353.545-3.29-2.118 2.953-4.584Z" fill="#161615" fill-rule="evenodd" data-name="Path 17"/><path d="m51.703 7.085.611.589-1.15 5.011 3.06-3.17.494.478-3.786 3.924-.582-.562 1.118-5.036-3.056 3.166-.494-.477 3.785-3.923Z" fill="#161615" fill-rule="evenodd" data-name="Path 18"/><path d="M57.808 14.835c-.093.508-.318.91-.677 1.205l-.397-.58c.246-.262.386-.548.423-.856.039-.31-.062-.638-.301-.986-.29-.424-.68-.66-1.172-.708-.49-.046-1.057.15-1.7.592-.528.361-.874.772-1.04 1.232-.168.46-.09.925.23 1.392.296.43.693.64 1.192.627.264-.004.563-.08.899-.224l.397.58c-.508.273-1.02.376-1.538.308-.622-.08-1.133-.413-1.534-.996-.346-.504-.478-1.036-.396-1.594.11-.739.602-1.407 1.476-2.007.663-.454 1.323-.659 1.98-.612.713.05 1.29.396 1.731 1.04.376.55.519 1.078.427 1.587Z" fill="#161615" fill-rule="evenodd" data-name="Path 19"/><path d="m59.353 16.789 1.515 3.55-.615.261-1.24-2.903-1.521.65 1.145 2.685-.58.247-1.146-2.683-1.7.726 1.26 2.953-.596.255-1.538-3.6 5.016-2.141Z" fill="#161615" fill-rule="evenodd" data-name="Path 20"/><path d="M57.893 23.284c-.299.082-.528.203-.691.363-.304.302-.392.738-.268 1.305.057.254.148.478.27.669.24.371.552.514.939.427.29-.063.478-.193.563-.392.083-.2.127-.496.135-.885l.013-.718c.007-.468.056-.809.142-1.022.152-.37.449-.602.891-.701.479-.105.906-.035 1.282.211.377.247.629.658.756 1.233.117.531.082 1.01-.106 1.44-.187.43-.578.71-1.17.84l-.146-.66c.278-.097.481-.218.61-.361.23-.268.293-.647.183-1.14-.087-.398-.24-.664-.457-.798a.884.884 0 0 0-.68-.122c-.261.056-.43.202-.506.434-.047.151-.076.478-.087.978l-.014.744c-.008.357-.062.645-.164.861-.178.375-.503.616-.977.72-.59.13-1.057.019-1.4-.332-.344-.352-.576-.799-.695-1.339-.139-.63-.08-1.16.179-1.59.258-.432.675-.706 1.252-.827l.146.662Z" fill="#161615" fill-rule="evenodd" data-name="Path 21"/><path d="m59.545 29.57.008 1.818-.687.003-.008-1.817.687-.004Z" fill="#161615" fill-rule="evenodd" data-name="Path 22"/><path d="m62.251 35.33-.513 2.36c-.085.39-.214.698-.386.925-.333.431-.804.578-1.416.447-.319-.07-.566-.191-.741-.365a1.437 1.437 0 0 1-.373-.645 1.09 1.09 0 0 1-.434.386c-.16.073-.395.08-.707.025l-.72-.13a2.447 2.447 0 0 0-.465-.05c-.178.006-.303.058-.375.156l-.12-.026.188-.863a.643.643 0 0 1 .19-.018c.075.002.218.021.428.057l.898.15c.352.06.612-.013.78-.216.093-.116.17-.315.23-.594l.34-1.557-2.285-.496.153-.705 5.328 1.158Zm-2.938 1.755c-.07.322-.057.59.038.806.095.217.319.363.672.44.379.083.667.007.861-.223.103-.124.18-.304.23-.538l.364-1.672-1.82-.396-.345 1.583Z" fill="#161615" fill-rule="evenodd" data-name="Path 23"/><path d="m60.755 41.237-1.504 3.555-.616-.26 1.23-2.908-1.524-.644-1.136 2.686-.582-.246 1.137-2.686-1.703-.72-1.25 2.957-.6-.253 1.525-3.605 5.023 2.124Z" fill="#161615" fill-rule="evenodd" data-name="Path 24"/><path d="m58.386 46.36-1.994 3.106-.562-.362 1.604-2.499-1.393-.893-1.41 2.195-.547-.35 1.412-2.196-2.087-1.341.388-.606 4.59 2.946Z" fill="#161615" fill-rule="evenodd" data-name="Path 25"/><path d="m55.445 50.665-2.599 2.851-.494-.45 2.127-2.332-1.224-1.116-1.966 2.157-.466-.425 1.966-2.157-1.367-1.245-2.162 2.373-.481-.437 2.636-2.893 4.03 3.674Z" fill="#161615" fill-rule="evenodd" data-name="Path 26"/><path d="m51.461 54.787-1.925 1.463c-.317.24-.615.39-.894.45-.531.112-.987-.082-1.365-.58-.199-.26-.307-.512-.328-.758-.02-.244.024-.489.136-.733-.217.056-.41.06-.58.01-.17-.047-.354-.194-.555-.439l-.463-.568a2.241 2.241 0 0 0-.321-.338c-.139-.111-.269-.153-.386-.125l-.075-.099.704-.533c.048.022.1.058.156.11.057.05.153.157.29.321l.585.697c.228.275.473.388.732.343.148-.028.335-.128.563-.3l1.268-.965-1.415-1.863.574-.436 3.299 4.343Zm-3.374-.574c-.262.199-.427.412-.496.637-.069.227.007.483.225.77.235.31.502.44.8.391.159-.028.334-.114.524-.26l1.363-1.034-1.127-1.484-1.29.98Z" fill="#161615" fill-rule="evenodd" data-name="Path 27"/><path d="m46.492 58.305-3.45 1.731-.3-.598 2.822-1.414-.742-1.481-2.609 1.308-.283-.564 2.609-1.309-.83-1.651-2.87 1.44-.29-.582 3.498-1.754 2.445 4.874Z" fill="#161615" fill-rule="evenodd" data-name="Path 28"/><path d="m41.374 60.697-.816.233-3.762-3.506 1.212 4.236-.661.189-1.5-5.242.778-.223 3.799 3.49-1.212-4.23.662-.19 1.5 5.243Z" fill="#161615" fill-rule="evenodd" data-name="Path 29"/><path d="M31.635 62.13c-.396-.331-.634-.726-.714-1.184l.7-.06c.107.345.286.608.536.793.25.186.585.26 1.006.225.512-.043.91-.267 1.193-.67.284-.403.393-.993.327-1.772-.054-.636-.24-1.14-.559-1.512-.318-.371-.759-.534-1.324-.486-.52.044-.897.286-1.134.727-.126.23-.21.528-.25.891l-.7.06c.015-.577.178-1.075.492-1.49.377-.503.918-.784 1.624-.842.61-.051 1.135.095 1.582.443.588.46.926 1.218 1.015 2.274.07.801-.081 1.477-.446 2.023-.394.597-.98.926-1.758.993-.663.055-1.193-.081-1.59-.413Z" fill="#161615" fill-rule="evenodd" data-name="Path 30"/><path d="m29.23 62.52-3.839-.402.07-.664 3.14.33.172-1.648-2.902-.303.065-.629 2.902.305.193-1.84-3.194-.333.067-.645 3.893.407-.567 5.422Z" fill="#161615" fill-rule="evenodd" data-name="Path 31"/><path d="M24.244 58.088c.073-.3.078-.56.018-.78-.118-.413-.456-.701-1.013-.867a2.03 2.03 0 0 0-.716-.088c-.44.029-.717.233-.83.612-.084.285-.06.513.071.684.136.17.373.352.71.546l.621.361c.406.233.681.441.825.62.25.31.309.684.18 1.118-.139.47-.408.809-.806 1.019-.398.21-.88.23-1.445.064-.52-.155-.922-.42-1.207-.792-.286-.372-.342-.85-.169-1.43l.649.192c-.05.29-.043.526.022.708.12.332.423.57.906.715.39.115.697.11.92-.014a.886.886 0 0 0 .439-.537c.075-.255.03-.473-.136-.651-.11-.115-.381-.299-.813-.55l-.644-.374c-.31-.18-.535-.367-.675-.56-.241-.338-.293-.74-.155-1.205.173-.579.495-.933.97-1.064.474-.128.978-.115 1.507.042.618.184 1.053.493 1.305.93.252.434.29.931.115 1.494l-.649-.193Z" fill="#161615" fill-rule="evenodd" data-name="Path 32"/></g></svg>